<?xml version="1.0" standalone="no"?>
<!DOCTYPE svg PUBLIC "-//W3C//DTD SVG 20010904//EN"
 "http://www.w3.org/TR/2001/REC-SVG-20010904/DTD/svg10.dtd">
<svg version="1.0" xmlns="http://www.w3.org/2000/svg"
 width="133.000000pt" height="133.000000pt" viewBox="0 0 133.000000 133.000000"
 preserveAspectRatio="xMidYMid meet">
<metadata>
Created by potrace 1.14, written by Peter Selinger 2001-2017
</metadata>
<g transform="translate(0.000000,133.000000) scale(0.100000,-0.100000)"
fill="#000000" stroke="none">
<path d="M595 1154 c3 -61 15 -104 15 -56 0 30 50 31 68 1 7 -12 16 -18 19
-15 3 3 0 12 -6 20 -9 11 -10 20 -2 35 25 46 0 81 -59 81 l-39 0 4 -66z m73
47 c22 -2 14 -51 -10 -60 -34 -13 -48 -3 -48 35 0 30 3 33 23 30 12 -3 28 -5
35 -5z"/>
<path d="M740 1216 c0 -2 7 -21 16 -42 9 -22 16 -54 16 -72 -1 -19 3 -30 8
-27 6 3 10 14 10 23 0 10 14 34 31 55 38 47 33 59 -6 15 l-29 -32 -17 42 c-15
35 -29 53 -29 38z"/>
<path d="M482 1200 c-18 -4 -35 -10 -38 -13 -6 -6 16 -118 25 -129 8 -10 92
12 86 23 -3 4 -18 4 -32 -2 -33 -12 -53 -5 -53 20 0 13 9 21 30 26 17 4 30 10
30 15 0 5 -14 5 -31 0 -26 -8 -31 -6 -38 13 -7 19 -4 23 23 30 17 5 35 13 41
18 10 10 4 10 -43 -1z"/>
<path d="M954 1144 c3 -7 1 -14 -4 -16 -4 -2 -2 -9 6 -16 11 -10 14 -10 14 0
0 9 3 9 10 -2 8 -13 10 -13 10 2 0 9 6 19 13 21 7 3 4 6 -6 6 -10 1 -16 5 -13
9 2 4 -4 8 -15 8 -11 0 -18 -5 -15 -12z"/>
<path d="M310 1132 c0 -16 48 -122 55 -122 16 0 77 31 72 36 -4 4 -20 1 -37
-6 -17 -7 -32 -11 -33 -9 -2 2 -12 24 -22 49 -21 49 -35 71 -35 52z"/>
<path d="M1091 1056 c-10 -11 -8 -24 8 -58 12 -27 16 -47 10 -53 -13 -13 -40
5 -56 36 -12 23 -13 23 -13 2 0 -31 46 -66 71 -52 23 12 24 38 4 65 -8 10 -15
27 -15 37 0 25 34 21 53 -5 13 -19 16 -20 16 -6 1 17 -34 48 -55 48 -6 0 -17
-6 -23 -14z"/>
<path d="M190 1052 c0 -13 70 -112 80 -112 11 1 74 59 64 60 -6 0 -21 -9 -34
-20 -30 -26 -32 -25 -53 8 -28 45 -57 78 -57 64z"/>
<path d="M1220 961 c14 -27 15 -24 -35 -60 -25 -18 -45 -37 -45 -43 0 -5 23 7
52 27 l51 37 18 -23 c28 -37 22 -11 -8 37 -28 43 -54 62 -33 25z"/>
<path d="M97 954 c-6 -6 60 -144 70 -144 2 0 2 13 -2 28 -8 38 26 83 57 74 14
-3 19 -1 14 6 -3 6 -28 15 -54 21 -26 5 -54 12 -63 16 -8 3 -18 3 -22 -1z m71
-27 c15 0 15 -3 2 -28 -15 -27 -27 -24 -45 12 -16 31 -16 31 7 23 13 -4 29 -7
36 -7z"/>
<path d="M715 902 c-6 -4 -65 -72 -132 -152 -97 -117 -127 -146 -149 -148 -35
-3 -41 -9 -27 -31 9 -14 7 -24 -13 -47 -35 -43 -29 -53 9 -15 31 29 41 32 104
36 121 7 284 52 371 102 57 33 75 68 53 102 -7 11 -20 6 -67 -22 -75 -46 -176
-84 -273 -102 -42 -8 -78 -15 -81 -15 -14 0 77 73 93 74 20 1 169 174 164 190
-5 16 -42 36 -52 28z m-249 -339 c-10 -10 -19 5 -10 18 6 11 8 11 12 0 2 -7 1
-15 -2 -18z"/>
<path d="M25 796 c-11 -17 -15 -35 -10 -55 8 -35 21 -48 59 -55 62 -11 108 92
50 114 -31 12 -34 12 -34 1 0 -5 11 -12 25 -15 21 -5 24 -11 21 -32 -7 -35
-24 -54 -50 -54 -48 0 -76 52 -49 90 8 12 13 24 10 27 -3 2 -13 -7 -22 -21z"/>
<path d="M1210 798 c-43 -46 -12 -121 50 -121 64 0 90 74 43 125 -22 25 -68
23 -93 -4z m78 -4 c30 -21 31 -79 1 -94 -32 -18 -66 -4 -78 31 -9 27 -8 33 14
55 28 28 33 29 63 8z"/>
<path d="M1205 620 c3 -5 13 -10 21 -10 11 0 13 -6 8 -22 -3 -13 -10 -24 -14
-26 -4 -1 -16 -10 -26 -18 -18 -15 -18 -15 6 -10 19 4 29 0 38 -14 25 -41 76
-13 88 47 6 29 5 30 -53 46 -69 20 -76 20 -68 7z m91 -30 c17 0 19 -41 2 -58
-17 -17 -47 -15 -54 3 -10 26 5 68 22 61 9 -3 22 -6 30 -6z"/>
<path d="M51 552 c-1 -7 -5 -10 -11 -7 -6 3 -7 -1 -4 -9 3 -9 1 -16 -5 -16 -8
0 -8 -4 1 -14 8 -9 15 -10 19 -4 4 6 12 7 19 3 9 -6 11 -4 5 5 -4 7 -2 16 6
21 11 7 11 9 -3 9 -9 0 -19 6 -21 13 -4 9 -6 9 -6 -1z"/>
<path d="M1126 458 c-14 -18 -23 -35 -20 -38 3 -3 16 7 28 23 24 30 36 33 54
15 8 -8 6 -17 -8 -36 -11 -14 -20 -30 -20 -36 0 -6 11 2 23 18 16 20 29 27 40
23 19 -7 23 -32 7 -42 -14 -9 -32 -45 -23 -45 4 0 19 16 33 36 l24 36 -44 39
c-25 21 -50 39 -57 39 -6 0 -23 -14 -37 -32z"/>
<path d="M218 427 c31 -32 32 -34 14 -50 -17 -16 -20 -16 -42 8 -13 14 -26 23
-28 20 -3 -3 5 -16 18 -30 22 -24 23 -26 7 -42 -16 -16 -19 -15 -47 12 -39 38
-39 20 1 -21 l31 -32 44 48 c24 26 44 51 44 57 0 12 -53 63 -65 63 -5 0 6 -15
23 -33z"/>
<path d="M293 343 c4 -27 2 -33 -14 -33 -19 0 -37 -25 -33 -47 1 -7 2 -17 3
-22 0 -5 16 -18 35 -29 l35 -21 30 55 c32 56 42 94 15 59 -18 -24 -47 -10 -52
26 -2 13 -8 29 -14 34 -6 7 -8 -1 -5 -22z m27 -61 c19 -16 20 -20 8 -43 -13
-25 -15 -26 -41 -13 -29 15 -35 42 -15 62 16 16 22 15 48 -6z"/>
<path d="M859 274 c-7 -9 -21 -13 -32 -10 -15 4 -17 2 -8 -7 6 -6 11 -20 11
-31 0 -15 3 -17 12 -8 7 7 17 8 29 1 16 -8 17 -13 7 -28 -23 -37 29 -64 53
-28 9 13 -1 47 -14 47 -7 0 -7 4 1 12 17 17 15 55 -4 62 -25 10 -41 7 -55 -10z
m52 -38 c-15 -18 -51 -5 -51 19 0 19 32 25 49 9 12 -11 12 -16 2 -28z m9 -62
c0 -14 -21 -19 -33 -7 -9 9 13 34 24 27 5 -3 9 -12 9 -20z"/>
<path d="M1084 270 c6 -21 5 -22 -4 -7 -6 9 -16 17 -21 17 -6 0 -8 -4 -5 -9 4
-5 0 -12 -6 -14 -10 -4 -10 -6 0 -6 7 -1 11 -5 7 -10 -8 -14 29 -9 42 4 7 8 6
17 -4 31 -14 18 -15 18 -9 -6z"/>
<path d="M415 260 c-26 -29 -24 -79 4 -102 34 -27 75 -23 100 8 27 35 26 59
-4 89 -30 31 -75 33 -100 5z m83 -6 c26 -18 30 -65 7 -84 -22 -18 -66 -15 -82
6 -19 25 -16 51 7 74 24 24 38 25 68 4z"/>
<path d="M588 230 c-8 -29 -8 -88 -1 -110 2 -9 15 5 35 39 33 57 32 57 69 -11
10 -21 23 -38 27 -38 9 0 9 126 0 136 -5 4 -8 -17 -8 -47 l0 -54 -27 48 -27
48 -26 -43 -25 -43 -5 50 c-5 40 -7 45 -12 25z"/>
</g>
</svg>
